<svg xmlns="http://www.w3.org/2000/svg" xmlns:xlink="http://www.w3.org/1999/xlink" viewBox="0 0 1000 1000"><defs><style>.cls-1,.cls-11,.cls-2,.cls-7,.cls-8,.cls-9{stroke:#000;stroke-miterlimit:10;}.cls-1,.cls-11,.cls-7,.cls-8,.cls-9{stroke-width:5px;}.cls-2{font-size:149.36px;stroke-width:2px;font-family:MyriadPro-Semibold, Myriad Pro;font-weight:700;}.cls-3{letter-spacing:0.01em;}.cls-4{letter-spacing:0em;}.cls-5{letter-spacing:0.01em;}.cls-6{letter-spacing:0.01em;}.cls-7,.cls-8,.cls-9{font-size:454.5px;font-family:YesevaOne, Yeseva One;}.cls-7{letter-spacing:0.04em;}.cls-8{letter-spacing:0.04em;}.cls-10{clip-path:url(#clip-path);}.cls-11{fill:none;}.cls-12{clip-path:url(#clip-path-2);}.cls-13{clip-path:url(#clip-path-3);}.cls-14{clip-path:url(#clip-path-4);}.cls-15{clip-path:url(#clip-path-5);}.cls-16{clip-path:url(#clip-path-6);}.cls-17{clip-path:url(#clip-path-7);}.cls-18{clip-path:url(#clip-path-8);}.cls-19{clip-path:url(#clip-path-9);}.cls-20{clip-path:url(#clip-path-10);}.cls-21{clip-path:url(#clip-path-11);}.cls-22{clip-path:url(#clip-path-12);}.cls-23{clip-path:url(#clip-path-13);}.cls-24{clip-path:url(#clip-path-14);}.cls-25{clip-path:url(#clip-path-15);}.cls-26{clip-path:url(#clip-path-16);}.cls-27{clip-path:url(#clip-path-17);}.cls-28{clip-path:url(#clip-path-18);}.cls-29{clip-path:url(#clip-path-19);}.cls-30{clip-path:url(#clip-path-20);}.cls-31{clip-path:url(#clip-path-21);}.cls-32{clip-path:url(#clip-path-22);}.cls-33{clip-path:url(#clip-path-23);}.cls-34{clip-path:url(#clip-path-24);}</style><clipPath id="clip-path"><path class="cls-1" d="M17.32,369.68a425.15,425.15,0,0,0,6.08,69.06l56.37-5.44a384.45,384.45,0,0,1-5.61-63.62c.6-95.36,40.73-138.93,73.21-172.57l-45.47-26c-35.13,35.19-85.18,93.41-84.58,198.58"/></clipPath><clipPath id="clip-path-2"><path class="cls-1" d="M44.94,472.25C94.5,513.4,122,589.1,126.94,626.5l40.42-2.61c-6.8-50-33.47-114.34-83.11-165.68-3.29-3.54-8.11-5-13.3-5-15.35,0-34,12.42-26,19"/></clipPath><clipPath id="clip-path-3"><path class="cls-1" d="M120.8,488.06a14.43,14.43,0,0,0-8.14,2.34,7,7,0,0,0-3.37,5.66V740a7,7,0,0,0,3.37,5.66A14.46,14.46,0,0,0,120.8,748h21V488.06Z"/></clipPath><clipPath id="clip-path-4"><path class="cls-1" d="M153.27,454.16a14.46,14.46,0,0,0-8.13,2.34,7,7,0,0,0-3.37,5.66V773.89a7,7,0,0,0,3.37,5.66,14.39,14.39,0,0,0,8.13,2.35h9.47a14.37,14.37,0,0,0,8.13-2.35,7,7,0,0,0,3.38-5.66V462.16a7,7,0,0,0-3.38-5.66,14.44,14.44,0,0,0-8.13-2.34Z"/></clipPath><clipPath id="clip-path-5"><path class="cls-1" d="M81,498.42C66,504.48,60.59,516.14,60.59,523.55V712.5c0,8.48,6.2,19.25,20.38,25.13,13,5.38,28.32,4.71,28.32,4.71V493.71a35.91,35.91,0,0,0-3.8-.16A66.44,66.44,0,0,0,81,498.42"/></clipPath><clipPath id="clip-path-6"><path class="cls-1" d="M174.24,459.8V776.25h50.38c12.71,0,23-70.83,23-158.22s-10.29-158.23-23-158.23Z"/></clipPath><clipPath id="clip-path-7"><path class="cls-1" d="M37.83,474C38,535.92,67.7,599.62,102.3,643.69l35.59-13.6C111.24,596.43,72,520.3,82.32,466.63c.82-4.23-7.1-6.54-16.48-6.54-12.79,0-28.3,4.31-28,13.95"/></clipPath><clipPath id="clip-path-8"><path class="cls-1" d="M94.6,636.57c0,9.36,10.9,17,24.36,17s24.34-7.59,24.34-17S132.4,619.62,119,619.62,94.6,627.21,94.6,636.57"/></clipPath><clipPath id="clip-path-9"><path class="cls-1" d="M15.34,442.86c0,18.72,21.81,33.9,48.7,33.9s48.71-15.18,48.71-33.9S90.94,408.95,64,408.95s-48.7,15.18-48.7,33.91"/></clipPath><clipPath id="clip-path-10"><path class="cls-1" d="M59.62,210.9c-17,23.24-34.29,53.31-42,89.54.33,5,65.83,13,67,7,6.06-30,24.93-52.07,45.19-67.25,9-12.56-32.41-34.34-56.25-34.34-6.27,0-11.32,1.5-13.93,5.07"/></clipPath><clipPath id="clip-path-11"><path class="cls-1" d="M857.35,197.1c32.48,33.65,72.6,77.21,73.21,172.57a384.42,384.42,0,0,1-5.61,63.62l56.38,5.44a427.57,427.57,0,0,0,6.08-69.06c.6-105.17-49.45-163.39-84.58-198.58Z"/></clipPath><clipPath id="clip-path-12"><path class="cls-1" d="M920.45,458.21c-49.63,51.34-76.31,115.67-83.11,165.68l40.43,2.61c4.89-37.4,32.44-113.1,82-154.25,7.93-6.58-10.67-19-26-19-5.19,0-10,1.42-13.3,5"/></clipPath><clipPath id="clip-path-13"><path class="cls-1" d="M842,454.16a14.44,14.44,0,0,0-8.13,2.34,7,7,0,0,0-3.37,5.66V773.89a7,7,0,0,0,3.37,5.66A14.37,14.37,0,0,0,842,781.9h9.48a14.4,14.4,0,0,0,8.13-2.35,7,7,0,0,0,3.36-5.66V462.16a7,7,0,0,0-3.36-5.66,14.47,14.47,0,0,0-8.13-2.34Z"/></clipPath><clipPath id="clip-path-14"><path class="cls-1" d="M862.95,488.06V748h21a14.45,14.45,0,0,0,8.13-2.35,7,7,0,0,0,3.37-5.66V496.07A7,7,0,0,0,892,490.4a14.42,14.42,0,0,0-8.13-2.34Z"/></clipPath><clipPath id="clip-path-15"><path class="cls-1" d="M895.42,493.71V742.34s15.34.67,28.32-4.71c14.18-5.88,20.38-16.65,20.38-25.13V523.55c0-7.41-5.43-19.07-20.38-25.13a66.45,66.45,0,0,0-24.52-4.87,35.91,35.91,0,0,0-3.8.16"/></clipPath><clipPath id="clip-path-16"><path class="cls-1" d="M780.09,459.8c-12.71,0-23,70.84-23,158.23s10.28,158.22,23,158.22h50.39V459.8Z"/></clipPath><clipPath id="clip-path-17"><path class="cls-1" d="M922.39,466.63c10.35,53.66-28.92,129.8-55.58,163.46l35.6,13.6C937,599.62,966.7,535.92,966.88,474c.28-9.64-15.22-13.95-28-13.95-9.38,0-17.3,2.32-16.48,6.54"/></clipPath><clipPath id="clip-path-18"><path class="cls-1" d="M861.41,636.57c0,9.36,10.89,17,24.34,17s24.36-7.59,24.36-17-10.91-16.95-24.36-16.95-24.34,7.59-24.34,16.95"/></clipPath><clipPath id="clip-path-19"><path class="cls-1" d="M892,442.86c0,18.72,21.81,33.9,48.7,33.9s48.71-15.18,48.71-33.9-21.81-33.91-48.71-33.91S892,424.13,892,442.86"/></clipPath><clipPath id="clip-path-20"><path class="cls-1" d="M874.92,240.16c20.25,15.18,39.13,37.2,45.19,67.25,1.13,6,66.64-1.94,67-7-7.69-36.23-25-66.31-42-89.54-2.61-3.57-7.66-5.07-13.93-5.07-23.84,0-65.24,21.78-56.24,34.34"/></clipPath><clipPath id="clip-path-21"><path class="cls-1" d="M441.67,24.74C280.62,39,144.62,103,65.72,199.76l75.78,36.07v0A312.11,312.11,0,0,1,170.59,205c16.3,4.37,33.81,1.62,45.07-6.88,10.36-8.55,13.6-21.59,7.9-33.59,2.36-1.49,4.66-3,7.07-4.47,14.28,6.74,31.94,7.23,44.91.7,13.27-6.42,20.07-19.05,18-31.66,2.66-1.07,5.4-2.08,8.11-3.11,12,8.95,29.19,12,44.33,8,14.9-4.92,25.35-16,26.19-29.06,2.76-.61,5.49-1.27,8.27-1.85,9.49,10.81,26.07,17,42.08,14.7,16.41-2.13,29.43-12.45,33.09-25.6,2.69-.23,5.42-.36,8.14-.55,6.64,12.42,21.79,21.23,38.42,20.64,16.74.56,32-8.33,38.54-20.9,2.64.17,5.3.26,7.93.46,3.56,13.3,16.65,23.77,33.2,25.88,16.16,2.4,32.9-4,42.31-15,2.67.57,5.36,1.11,8,1.7.61,13.25,11.13,24.55,26.24,29.51,15.33,4.07,32.75.84,44.75-8.4,2.62,1,5.2,2,7.79,3-2.33,12.78,4.47,25.62,17.9,32.13,13.24,6.6,31.21,6,45.63-1.11,2.27,1.36,4.53,2.77,6.76,4.17-6.15,12.19-3,25.58,7.56,34.25,11.33,8.54,29,11.25,45.38,6.75a336.25,336.25,0,0,1,29.06,31.11l75.77-36a412.15,412.15,0,0,0-57-57.09C788.45,65.85,647.79,22.18,503.42,22c-20.55,0-41.18.91-61.75,2.74"/></clipPath><clipPath id="clip-path-22"><path class="cls-1" d="M502.13,92.48c-17.86.62-34.15-8.84-41.28-22.18-2.92.2-5.84.35-8.74.59C448.18,85,434.19,96.1,416.57,98.38c-17.2,2.53-35-4.16-45.21-15.78-3,.62-5.93,1.33-8.88,2-.9,14-12.13,25.93-28.14,31.23-16.26,4.31-34.74,1-47.62-8.58-2.91,1.1-5.86,2.19-8.72,3.34,2.25,13.55-5.06,27.12-19.32,34-13.92,7-32.9,6.49-48.25-.75-2.6,1.56-5.06,3.21-7.6,4.8,6.13,12.9,2.64,26.91-8.48,36.09-12.1,9.13-30.92,12.1-48.43,7.39A337.6,337.6,0,0,0,116,223.68l25.52,12.15v0A312.11,312.11,0,0,1,170.59,205c16.3,4.37,33.81,1.62,45.07-6.88,10.36-8.55,13.6-21.59,7.9-33.59,2.36-1.49,4.66-3,7.07-4.47,14.28,6.74,31.94,7.23,44.91.7,13.27-6.42,20.07-19.05,18-31.66,2.66-1.07,5.4-2.08,8.11-3.11,12,8.95,29.19,12,44.33,8,14.9-4.92,25.35-16,26.19-29.06,2.76-.61,5.49-1.27,8.27-1.85,9.49,10.81,26.07,17,42.08,14.7,16.41-2.13,29.43-12.45,33.09-25.6,2.69-.23,5.42-.36,8.14-.55,6.64,12.42,21.79,21.23,38.42,20.64,16.74.56,32-8.33,38.54-20.9,2.64.17,5.3.26,7.93.46,3.56,13.3,16.65,23.77,33.2,25.88,16.16,2.4,32.9-4,42.31-15,2.67.57,5.36,1.11,8,1.7.61,13.25,11.13,24.55,26.24,29.51,15.33,4.07,32.75.84,44.75-8.4,2.62,1,5.2,2,7.79,3-2.33,12.78,4.47,25.62,17.9,32.13,13.24,6.6,31.21,6,45.63-1.11,2.27,1.36,4.53,2.77,6.76,4.17-6.15,12.19-3,25.58,7.56,34.25,11.33,8.54,29,11.25,45.38,6.75a336.25,336.25,0,0,1,29.06,31.11l25.52-12.14a362.16,362.16,0,0,0-29.91-31.92c-17.59,4.83-36.58,1.93-48.74-7.26-11.38-9.32-14.73-23.7-8.12-36.79-2.41-1.51-4.82-3-7.29-4.49-15.47,7.61-34.78,8.28-49,1.2-14.42-7-21.72-20.79-19.22-34.52-2.78-1.09-5.56-2.17-8.36-3.23-12.9,9.93-31.62,13.39-48.08,9-16.23-5.34-27.53-17.47-28.19-31.7-2.86-.64-5.76-1.22-8.63-1.82C623.06,94,605.08,100.9,587.72,98.31c-17.78-2.26-31.85-13.51-35.66-27.8-2.83-.2-5.7-.31-8.52-.48-7,13.49-23.42,23.05-41.41,22.46"/></clipPath><clipPath id="clip-path-23"><path class="cls-1" d="M936.31,197.56l-70.15,35.67c-4.44,2.25-4.15,6.11.19,8.48l7.68,4.17a15,15,0,0,0,12.71.07l57.38-29.14c3.62-1.85,5.73-5.75,4.75-8.93l-2.26-7a6.32,6.32,0,0,0-6.26-4.36,9,9,0,0,0-4,1"/></clipPath><clipPath id="clip-path-24"><path class="cls-1" d="M57.94,200.92l-2.25,7c-1,3.19,1.12,7.09,4.75,8.93L117.82,246a15,15,0,0,0,12.71-.07l7.67-4.17c4.34-2.37,4.63-6.24.19-8.48L68.24,197.56a9,9,0,0,0-4-1,6.33,6.33,0,0,0-6.27,4.36"/></clipPath></defs><title>Logo_RSG_BLACK</title><g id="Logo_Black" data-name="Logo Black"><text class="cls-2" transform="translate(8.86 939.94) scale(0.88 1)"><tspan class="cls-3">R</tspan><tspan class="cls-4" x="86.47" y="0">adio </tspan><tspan class="cls-5" x="402.51" y="0">S</tspan><tspan x="480.92" y="0">ans </tspan><tspan class="cls-6" x="735.42" y="0">G</tspan><tspan x="835.78" y="0">énie</tspan></text><text class="cls-7" transform="translate(247.42 776.36) scale(0.57 1)">R</text><text class="cls-8" transform="translate(437.59 738.36) scale(0.45 0.76)">S</text><text class="cls-9" transform="translate(568.83 768.36) scale(0.57 0.95)">G</text><path d="M17.32,369.68a425.15,425.15,0,0,0,6.08,69.06l56.37-5.44a384.45,384.45,0,0,1-5.61-63.62c.6-95.36,40.73-138.93,73.21-172.57l-45.47-26c-35.13,35.19-85.18,93.41-84.58,198.58"/><g class="cls-10"><path class="cls-1" d="M17.32,369.68a425.16,425.16,0,0,0,6.08,69.06l56.37-5.44a384.44,384.44,0,0,1-5.61-63.62c.6-95.36,40.73-138.93,73.21-172.57l-45.47-26c-35.13,35.19-85.18,93.41-84.58,198.58"/></g><path class="cls-11" d="M17.32,369.68a425.15,425.15,0,0,0,6.08,69.06l56.37-5.44a384.45,384.45,0,0,1-5.61-63.62c.6-95.36,40.73-138.93,73.21-172.57l-45.47-26c-35.13,35.19-85.18,93.41-84.58,198.58"/><path d="M44.94,472.25C94.5,513.4,122,589.1,126.94,626.5l40.42-2.61c-6.8-50-33.47-114.34-83.11-165.68-3.29-3.54-8.11-5-13.3-5-15.35,0-34,12.42-26,19"/><g class="cls-12"><path class="cls-1" d="M44.94,472.25C94.5,513.4,122,589.1,126.94,626.5l40.42-2.61c-6.8-50-33.47-114.34-83.11-165.68-3.29-3.54-8.11-5-13.3-5-15.35,0-34,12.42-26,19"/></g><path class="cls-11" d="M44.94,472.25C94.5,513.4,122,589.1,126.94,626.5l40.42-2.61c-6.8-50-33.47-114.34-83.11-165.68-3.29-3.54-8.11-5-13.3-5-15.35,0-34,12.42-26,19"/><path d="M120.8,488.06a14.43,14.43,0,0,0-8.14,2.34,7,7,0,0,0-3.37,5.66V740a7,7,0,0,0,3.37,5.66A14.46,14.46,0,0,0,120.8,748h21V488.06Z"/><g class="cls-13"><path class="cls-1" d="M120.8,488.06a14.43,14.43,0,0,0-8.14,2.34,7,7,0,0,0-3.37,5.66V740a7,7,0,0,0,3.37,5.66A14.46,14.46,0,0,0,120.8,748h21V488.06"/></g><path class="cls-11" d="M120.8,488.06a14.43,14.43,0,0,0-8.14,2.34,7,7,0,0,0-3.37,5.66V740a7,7,0,0,0,3.37,5.66A14.46,14.46,0,0,0,120.8,748h21V488.06Z"/><path d="M153.27,454.16a14.46,14.46,0,0,0-8.13,2.34,7,7,0,0,0-3.37,5.66V773.89a7,7,0,0,0,3.37,5.66,14.39,14.39,0,0,0,8.13,2.35h9.47a14.37,14.37,0,0,0,8.13-2.35,7,7,0,0,0,3.38-5.66V462.16a7,7,0,0,0-3.38-5.66,14.44,14.44,0,0,0-8.13-2.34Z"/><g class="cls-14"><path class="cls-1" d="M153.27,454.16a14.46,14.46,0,0,0-8.13,2.34,7,7,0,0,0-3.37,5.66V773.89a7,7,0,0,0,3.37,5.66,14.39,14.39,0,0,0,8.13,2.35h9.47a14.37,14.37,0,0,0,8.13-2.35,7,7,0,0,0,3.38-5.66V462.16a7,7,0,0,0-3.38-5.66,14.44,14.44,0,0,0-8.13-2.34"/></g><path class="cls-11" d="M153.27,454.16a14.46,14.46,0,0,0-8.13,2.34,7,7,0,0,0-3.37,5.66V773.89a7,7,0,0,0,3.37,5.66,14.39,14.39,0,0,0,8.13,2.35h9.47a14.37,14.37,0,0,0,8.13-2.35,7,7,0,0,0,3.38-5.66V462.16a7,7,0,0,0-3.38-5.66,14.44,14.44,0,0,0-8.13-2.34Z"/><path d="M81,498.42C66,504.48,60.59,516.14,60.59,523.55V712.5c0,8.48,6.2,19.25,20.38,25.13,13,5.38,28.32,4.71,28.32,4.71V493.71a35.91,35.91,0,0,0-3.8-.16A66.44,66.44,0,0,0,81,498.42"/><g class="cls-15"><path class="cls-1" d="M81,498.42C66,504.48,60.59,516.14,60.59,523.55V712.5c0,8.48,6.2,19.25,20.38,25.13,13,5.38,28.32,4.71,28.32,4.71V493.71a35.91,35.91,0,0,0-3.8-.16A66.44,66.44,0,0,0,81,498.42"/></g><path class="cls-11" d="M81,498.42C66,504.48,60.59,516.14,60.59,523.55V712.5c0,8.48,6.2,19.25,20.38,25.13,13,5.38,28.32,4.71,28.32,4.71V493.71a35.91,35.91,0,0,0-3.8-.16A66.44,66.44,0,0,0,81,498.42"/><path d="M174.24,459.8V776.25h50.38c12.71,0,23-70.83,23-158.22s-10.29-158.23-23-158.23Z"/><g class="cls-16"><path class="cls-1" d="M174.24,459.8V776.25h50.38c12.71,0,23-70.83,23-158.22s-10.29-158.23-23-158.23"/></g><path class="cls-11" d="M174.24,459.8V776.25h50.38c12.71,0,23-70.83,23-158.22s-10.29-158.23-23-158.23Z"/><path d="M37.83,474C38,535.92,67.7,599.62,102.3,643.69l35.59-13.6C111.24,596.43,72,520.3,82.32,466.63c.82-4.23-7.1-6.54-16.48-6.54-12.79,0-28.3,4.31-28,13.95"/><g class="cls-17"><path class="cls-1" d="M37.83,474C38,535.92,67.7,599.62,102.3,643.69l35.59-13.6C111.24,596.43,72,520.3,82.32,466.63c.82-4.23-7.1-6.54-16.48-6.54-12.79,0-28.3,4.31-28,13.95"/></g><path class="cls-11" d="M37.83,474C38,535.92,67.7,599.62,102.3,643.69l35.59-13.6C111.24,596.43,72,520.3,82.32,466.63c.82-4.23-7.1-6.54-16.48-6.54-12.79,0-28.3,4.31-28,13.95"/><path d="M94.6,636.57c0,9.36,10.9,17,24.36,17s24.34-7.59,24.34-17S132.4,619.62,119,619.62,94.6,627.21,94.6,636.57"/><g class="cls-18"><path class="cls-1" d="M94.6,636.57c0,9.36,10.9,17,24.36,17s24.34-7.59,24.34-17S132.4,619.62,119,619.62,94.6,627.21,94.6,636.57"/></g><path class="cls-11" d="M94.6,636.57c0,9.36,10.9,17,24.36,17s24.34-7.59,24.34-17S132.4,619.62,119,619.62,94.6,627.21,94.6,636.57"/><path d="M15.34,442.86c0,18.72,21.81,33.9,48.7,33.9s48.71-15.18,48.71-33.9S90.94,408.95,64,408.95s-48.7,15.18-48.7,33.91"/><g class="cls-19"><path class="cls-1" d="M15.34,442.86c0,18.72,21.81,33.9,48.7,33.9s48.71-15.18,48.71-33.9S90.94,408.95,64,408.95s-48.7,15.18-48.7,33.91"/></g><path class="cls-11" d="M15.34,442.86c0,18.72,21.81,33.9,48.7,33.9s48.71-15.18,48.71-33.9S90.94,408.95,64,408.95s-48.7,15.18-48.7,33.91"/><path d="M59.62,210.9c-17,23.24-34.29,53.31-42,89.54.33,5,65.83,13,67,7,6.06-30,24.93-52.07,45.19-67.25,9-12.56-32.41-34.34-56.25-34.34-6.27,0-11.32,1.5-13.93,5.07"/><g class="cls-20"><path class="cls-1" d="M59.62,210.9c-17,23.24-34.29,53.31-42,89.54.33,5,65.83,13,67,7,6.06-30,24.93-52.07,45.19-67.25,9-12.56-32.41-34.34-56.25-34.34-6.27,0-11.32,1.5-13.93,5.07"/></g><path class="cls-11" d="M59.62,210.9c-17,23.24-34.29,53.31-42,89.54.33,5,65.83,13,67,7,6.06-30,24.93-52.07,45.19-67.25,9-12.56-32.41-34.34-56.25-34.34-6.27,0-11.32,1.5-13.93,5.07"/><path d="M857.35,197.1c32.48,33.65,72.6,77.21,73.21,172.57a384.42,384.42,0,0,1-5.61,63.62l56.38,5.44a427.57,427.57,0,0,0,6.08-69.06c.6-105.17-49.45-163.39-84.58-198.58Z"/><g class="cls-21"><path class="cls-1" d="M857.35,197.1c32.48,33.65,72.6,77.21,73.21,172.57a384.43,384.43,0,0,1-5.61,63.62l56.38,5.44a427.57,427.57,0,0,0,6.08-69.06c.6-105.17-49.45-163.39-84.58-198.58"/></g><path class="cls-11" d="M857.35,197.1c32.48,33.65,72.6,77.21,73.21,172.57a384.42,384.42,0,0,1-5.61,63.62l56.38,5.44a427.57,427.57,0,0,0,6.08-69.06c.6-105.17-49.45-163.39-84.58-198.58Z"/><path d="M920.45,458.21c-49.63,51.34-76.31,115.67-83.11,165.68l40.43,2.61c4.89-37.4,32.44-113.1,82-154.25,7.93-6.58-10.67-19-26-19-5.19,0-10,1.42-13.3,5"/><g class="cls-22"><path class="cls-1" d="M920.45,458.21c-49.64,51.34-76.31,115.67-83.11,165.68l40.43,2.61c4.89-37.4,32.44-113.1,82-154.25,7.93-6.58-10.67-19-26-19-5.19,0-10,1.42-13.3,5"/></g><path class="cls-11" d="M920.45,458.21c-49.63,51.34-76.31,115.67-83.11,165.68l40.43,2.61c4.89-37.4,32.44-113.1,82-154.25,7.93-6.58-10.67-19-26-19-5.19,0-10,1.42-13.3,5"/><path d="M842,454.16a14.44,14.44,0,0,0-8.13,2.34,7,7,0,0,0-3.37,5.66V773.89a7,7,0,0,0,3.37,5.66A14.37,14.37,0,0,0,842,781.9h9.48a14.4,14.4,0,0,0,8.13-2.35,7,7,0,0,0,3.36-5.66V462.16a7,7,0,0,0-3.36-5.66,14.47,14.47,0,0,0-8.13-2.34Z"/><g class="cls-23"><path class="cls-1" d="M842,454.16a14.44,14.44,0,0,0-8.13,2.34,7,7,0,0,0-3.37,5.66V773.89a7,7,0,0,0,3.37,5.66A14.37,14.37,0,0,0,842,781.9h9.48a14.4,14.4,0,0,0,8.13-2.35,7,7,0,0,0,3.36-5.66V462.16a7,7,0,0,0-3.36-5.66,14.47,14.47,0,0,0-8.13-2.34"/></g><path class="cls-11" d="M842,454.16a14.44,14.44,0,0,0-8.13,2.34,7,7,0,0,0-3.37,5.66V773.89a7,7,0,0,0,3.37,5.66A14.37,14.37,0,0,0,842,781.9h9.48a14.4,14.4,0,0,0,8.13-2.35,7,7,0,0,0,3.36-5.66V462.16a7,7,0,0,0-3.36-5.66,14.47,14.47,0,0,0-8.13-2.34Z"/><path d="M862.95,488.06V748h21a14.45,14.45,0,0,0,8.13-2.35,7,7,0,0,0,3.37-5.66V496.07A7,7,0,0,0,892,490.4a14.42,14.42,0,0,0-8.13-2.34Z"/><g class="cls-24"><path class="cls-1" d="M862.95,488.06V748h21a14.45,14.45,0,0,0,8.13-2.35,7,7,0,0,0,3.37-5.66V496.07A7,7,0,0,0,892,490.4a14.42,14.42,0,0,0-8.13-2.34"/></g><path class="cls-11" d="M862.95,488.06V748h21a14.45,14.45,0,0,0,8.13-2.35,7,7,0,0,0,3.37-5.66V496.07A7,7,0,0,0,892,490.4a14.42,14.42,0,0,0-8.13-2.34Z"/><path d="M895.42,493.71V742.34s15.34.67,28.32-4.71c14.18-5.88,20.38-16.65,20.38-25.13V523.55c0-7.41-5.43-19.07-20.38-25.13a66.45,66.45,0,0,0-24.52-4.87,35.91,35.91,0,0,0-3.8.16"/><g class="cls-25"><path class="cls-1" d="M895.42,493.71V742.34s15.34.67,28.32-4.71c14.18-5.88,20.38-16.65,20.38-25.13V523.55c0-7.41-5.43-19.07-20.38-25.13a66.45,66.45,0,0,0-24.52-4.87,35.91,35.91,0,0,0-3.8.16"/></g><path class="cls-11" d="M895.42,493.71V742.34s15.34.67,28.32-4.71c14.18-5.88,20.38-16.65,20.38-25.13V523.55c0-7.41-5.43-19.07-20.38-25.13a66.45,66.45,0,0,0-24.52-4.87,35.91,35.91,0,0,0-3.8.16"/><path d="M780.09,459.8c-12.71,0-23,70.84-23,158.23s10.28,158.22,23,158.22h50.39V459.8Z"/><g class="cls-26"><path class="cls-1" d="M780.09,459.8c-12.71,0-23,70.84-23,158.23s10.28,158.22,23,158.22h50.39V459.8"/></g><path class="cls-11" d="M780.09,459.8c-12.71,0-23,70.84-23,158.23s10.28,158.22,23,158.22h50.39V459.8Z"/><path d="M922.39,466.63c10.35,53.66-28.92,129.8-55.58,163.46l35.6,13.6C937,599.62,966.7,535.92,966.88,474c.28-9.64-15.22-13.95-28-13.95-9.38,0-17.3,2.32-16.48,6.54"/><g class="cls-27"><path class="cls-1" d="M922.39,466.63c10.35,53.66-28.92,129.8-55.58,163.46l35.6,13.6C937,599.62,966.7,535.92,966.88,474c.28-9.64-15.22-13.95-28-13.95-9.38,0-17.3,2.32-16.48,6.54"/></g><path class="cls-11" d="M922.39,466.63c10.35,53.66-28.92,129.8-55.58,163.46l35.6,13.6C937,599.62,966.7,535.92,966.88,474c.28-9.64-15.22-13.95-28-13.95-9.38,0-17.3,2.32-16.48,6.54"/><path d="M861.41,636.57c0,9.36,10.89,17,24.34,17s24.36-7.59,24.36-17-10.91-16.95-24.36-16.95-24.34,7.59-24.34,16.95"/><g class="cls-28"><path class="cls-1" d="M861.41,636.57c0,9.36,10.89,17,24.34,17s24.36-7.59,24.36-17-10.91-16.95-24.36-16.95-24.34,7.59-24.34,16.95"/></g><path class="cls-11" d="M861.41,636.57c0,9.36,10.89,17,24.34,17s24.36-7.59,24.36-17-10.91-16.95-24.36-16.95-24.34,7.59-24.34,16.95"/><path d="M892,442.86c0,18.72,21.81,33.9,48.7,33.9s48.71-15.18,48.71-33.9-21.81-33.91-48.71-33.91S892,424.13,892,442.86"/><g class="cls-29"><path class="cls-1" d="M892,442.86c0,18.72,21.81,33.9,48.7,33.9s48.71-15.18,48.71-33.9-21.81-33.91-48.71-33.91S892,424.13,892,442.86"/></g><path class="cls-11" d="M892,442.86c0,18.72,21.81,33.9,48.7,33.9s48.71-15.18,48.71-33.9-21.81-33.91-48.71-33.91S892,424.13,892,442.86"/><path d="M874.92,240.16c20.25,15.18,39.13,37.2,45.19,67.25,1.13,6,66.64-1.94,67-7-7.69-36.23-25-66.31-42-89.54-2.61-3.57-7.66-5.07-13.93-5.07-23.84,0-65.24,21.78-56.24,34.34"/><g class="cls-30"><path class="cls-1" d="M874.92,240.16c20.25,15.18,39.13,37.2,45.19,67.25,1.13,6,66.64-1.94,67-7-7.69-36.23-25-66.31-42-89.54-2.61-3.57-7.66-5.07-13.93-5.07-23.84,0-65.24,21.78-56.24,34.34"/></g><path class="cls-11" d="M874.92,240.16c20.25,15.18,39.13,37.2,45.19,67.25,1.13,6,66.64-1.94,67-7-7.69-36.23-25-66.31-42-89.54-2.61-3.57-7.66-5.07-13.93-5.07-23.84,0-65.24,21.78-56.24,34.34"/><path d="M441.67,24.74C280.62,39,144.62,103,65.72,199.76l75.78,36.07v0A312.11,312.11,0,0,1,170.59,205c16.3,4.37,33.81,1.62,45.07-6.88,10.36-8.55,13.6-21.59,7.9-33.59,2.36-1.49,4.66-3,7.07-4.47,14.28,6.74,31.94,7.23,44.91.7,13.27-6.42,20.07-19.05,18-31.66,2.66-1.07,5.4-2.08,8.11-3.11,12,8.95,29.19,12,44.33,8,14.9-4.92,25.35-16,26.19-29.06,2.76-.61,5.49-1.27,8.27-1.85,9.49,10.81,26.07,17,42.08,14.7,16.41-2.13,29.43-12.45,33.09-25.6,2.69-.23,5.42-.36,8.14-.55,6.64,12.42,21.79,21.23,38.42,20.64,16.74.56,32-8.33,38.54-20.9,2.64.17,5.3.26,7.93.46,3.56,13.3,16.65,23.77,33.2,25.88,16.16,2.4,32.9-4,42.31-15,2.67.57,5.36,1.11,8,1.7.61,13.25,11.13,24.55,26.24,29.51,15.33,4.07,32.75.84,44.75-8.4,2.62,1,5.2,2,7.79,3-2.33,12.78,4.47,25.62,17.9,32.13,13.24,6.6,31.21,6,45.63-1.11,2.27,1.36,4.53,2.77,6.76,4.17-6.15,12.19-3,25.58,7.56,34.25,11.33,8.54,29,11.25,45.38,6.75a336.25,336.25,0,0,1,29.06,31.11l75.77-36a412.15,412.15,0,0,0-57-57.09C788.45,65.85,647.79,22.18,503.42,22c-20.55,0-41.18.91-61.75,2.74"/><g class="cls-31"><path class="cls-1" d="M441.67,24.74C280.62,39,144.62,103,65.72,199.76l75.78,36.07v0A312.13,312.13,0,0,1,170.59,205c16.3,4.37,33.81,1.62,45.07-6.88,10.36-8.55,13.6-21.59,7.9-33.59,2.36-1.49,4.66-3,7.07-4.47,14.28,6.74,31.94,7.23,44.91.7,13.27-6.42,20.07-19.05,18-31.66,2.66-1.07,5.4-2.08,8.12-3.11,12,8.95,29.19,12,44.33,8,14.9-4.92,25.35-16,26.19-29.06,2.76-.61,5.49-1.27,8.27-1.85,9.49,10.81,26.07,17,42.08,14.7,16.41-2.13,29.43-12.45,33.09-25.6,2.69-.22,5.42-.36,8.14-.55,6.64,12.42,21.79,21.23,38.42,20.64,16.74.56,32-8.33,38.54-20.9,2.64.17,5.3.26,7.93.46,3.56,13.3,16.65,23.77,33.2,25.88,16.16,2.4,32.9-4,42.31-15,2.67.57,5.36,1.11,8,1.7.61,13.25,11.13,24.55,26.24,29.51,15.33,4.07,32.75.84,44.75-8.4,2.62,1,5.2,2,7.79,3-2.33,12.78,4.47,25.62,17.9,32.13,13.24,6.6,31.21,6,45.63-1.11,2.28,1.36,4.53,2.77,6.76,4.17-6.15,12.19-3,25.58,7.56,34.25,11.33,8.54,29,11.25,45.38,6.75a336.27,336.27,0,0,1,29.06,31.11l75.77-36a412.17,412.17,0,0,0-57-57.09C788.45,65.85,647.79,22.18,503.42,22c-20.55,0-41.18.91-61.75,2.74"/></g><path class="cls-11" d="M441.67,24.74C280.62,39,144.62,103,65.72,199.76l75.78,36.07v0A312.11,312.11,0,0,1,170.59,205c16.3,4.37,33.81,1.62,45.07-6.88,10.36-8.55,13.6-21.59,7.9-33.59,2.36-1.49,4.66-3,7.07-4.47,14.28,6.74,31.94,7.23,44.91.7,13.27-6.42,20.07-19.05,18-31.66,2.66-1.07,5.4-2.08,8.11-3.11,12,8.95,29.19,12,44.33,8,14.9-4.92,25.35-16,26.19-29.06,2.76-.61,5.49-1.27,8.27-1.85,9.49,10.81,26.07,17,42.08,14.7,16.41-2.13,29.43-12.45,33.09-25.6,2.69-.23,5.42-.36,8.14-.55,6.64,12.42,21.79,21.23,38.42,20.64,16.74.56,32-8.33,38.54-20.9,2.64.17,5.3.26,7.93.46,3.56,13.3,16.65,23.77,33.2,25.88,16.16,2.4,32.9-4,42.31-15,2.67.57,5.36,1.11,8,1.7.61,13.25,11.13,24.55,26.24,29.51,15.33,4.07,32.75.84,44.75-8.4,2.62,1,5.2,2,7.79,3-2.33,12.78,4.47,25.62,17.9,32.13,13.24,6.6,31.21,6,45.63-1.11,2.27,1.36,4.53,2.77,6.76,4.17-6.15,12.19-3,25.58,7.56,34.25,11.33,8.54,29,11.25,45.38,6.75a336.25,336.25,0,0,1,29.06,31.11l75.77-36a412.15,412.15,0,0,0-57-57.09C788.45,65.85,647.79,22.18,503.42,22c-20.55,0-41.18.91-61.75,2.74"/><path d="M502.13,92.48c-17.86.62-34.15-8.84-41.28-22.18-2.92.2-5.84.35-8.74.59C448.18,85,434.19,96.1,416.57,98.38c-17.2,2.53-35-4.16-45.21-15.78-3,.62-5.93,1.33-8.88,2-.9,14-12.13,25.93-28.14,31.23-16.26,4.31-34.74,1-47.62-8.58-2.91,1.1-5.86,2.19-8.72,3.34,2.25,13.55-5.06,27.12-19.32,34-13.92,7-32.9,6.49-48.25-.75-2.6,1.56-5.06,3.21-7.6,4.8,6.13,12.9,2.64,26.91-8.48,36.09-12.1,9.13-30.92,12.1-48.43,7.39A337.6,337.6,0,0,0,116,223.68l25.52,12.15v0A312.11,312.11,0,0,1,170.59,205c16.3,4.37,33.81,1.62,45.07-6.88,10.36-8.55,13.6-21.59,7.9-33.59,2.36-1.49,4.66-3,7.07-4.47,14.28,6.74,31.94,7.23,44.91.7,13.27-6.42,20.07-19.05,18-31.66,2.66-1.07,5.4-2.08,8.11-3.11,12,8.95,29.19,12,44.33,8,14.9-4.92,25.35-16,26.19-29.06,2.76-.61,5.49-1.27,8.27-1.85,9.49,10.81,26.07,17,42.08,14.7,16.41-2.13,29.43-12.45,33.09-25.6,2.69-.23,5.42-.36,8.14-.55,6.64,12.42,21.79,21.23,38.42,20.64,16.74.56,32-8.33,38.54-20.9,2.64.17,5.3.26,7.93.46,3.56,13.3,16.65,23.77,33.2,25.88,16.16,2.4,32.9-4,42.31-15,2.67.57,5.36,1.11,8,1.7.61,13.25,11.13,24.55,26.24,29.51,15.33,4.07,32.75.84,44.75-8.4,2.62,1,5.2,2,7.79,3-2.33,12.78,4.47,25.62,17.9,32.13,13.24,6.6,31.21,6,45.63-1.11,2.27,1.36,4.53,2.77,6.76,4.17-6.15,12.19-3,25.58,7.56,34.25,11.33,8.54,29,11.25,45.38,6.75a336.25,336.25,0,0,1,29.06,31.11l25.52-12.14a362.16,362.16,0,0,0-29.91-31.92c-17.59,4.83-36.58,1.93-48.74-7.26-11.38-9.32-14.73-23.7-8.12-36.79-2.41-1.51-4.82-3-7.29-4.49-15.47,7.61-34.78,8.28-49,1.2-14.42-7-21.72-20.79-19.22-34.52-2.78-1.09-5.56-2.17-8.36-3.23-12.9,9.93-31.62,13.39-48.08,9-16.23-5.34-27.53-17.47-28.19-31.7-2.86-.64-5.76-1.22-8.63-1.82C623.06,94,605.08,100.9,587.72,98.31c-17.78-2.26-31.85-13.51-35.66-27.8-2.83-.2-5.7-.31-8.52-.48-7,13.49-23.42,23.05-41.41,22.46"/><g class="cls-32"><path class="cls-1" d="M502.13,92.48c-17.86.62-34.15-8.84-41.28-22.18-2.92.2-5.84.35-8.74.59C448.18,85,434.19,96.1,416.57,98.38c-17.2,2.53-35-4.16-45.21-15.78-3,.62-5.93,1.33-8.88,2-.9,14-12.13,25.93-28.14,31.23-16.26,4.31-34.74,1-47.62-8.58-2.91,1.1-5.86,2.19-8.72,3.34,2.25,13.55-5.06,27.12-19.32,34-13.92,7-32.9,6.49-48.25-.75-2.6,1.56-5.06,3.21-7.6,4.8,6.13,12.9,2.64,26.91-8.48,36.09-12.1,9.13-30.92,12.1-48.43,7.39A337.62,337.62,0,0,0,116,223.68l25.52,12.15v0A312.13,312.13,0,0,1,170.59,205c16.3,4.37,33.81,1.62,45.07-6.88,10.36-8.55,13.6-21.59,7.9-33.59,2.36-1.49,4.66-3,7.07-4.47,14.28,6.74,31.94,7.23,44.91.7,13.27-6.42,20.07-19.05,18-31.66,2.66-1.07,5.4-2.08,8.12-3.11,12,8.95,29.19,12,44.33,8,14.9-4.92,25.35-16,26.19-29.06,2.76-.61,5.49-1.27,8.27-1.85,9.49,10.81,26.07,17,42.08,14.7,16.41-2.13,29.43-12.45,33.09-25.6,2.69-.22,5.42-.36,8.14-.55,6.64,12.42,21.79,21.23,38.42,20.64,16.74.56,32-8.33,38.54-20.9,2.64.17,5.3.26,7.93.46,3.56,13.3,16.65,23.77,33.2,25.88,16.16,2.4,32.9-4,42.31-15,2.67.57,5.36,1.11,8,1.7.61,13.25,11.13,24.55,26.24,29.51,15.33,4.07,32.75.84,44.75-8.4,2.62,1,5.2,2,7.79,3-2.33,12.78,4.47,25.62,17.9,32.13,13.24,6.6,31.21,6,45.63-1.11,2.28,1.36,4.53,2.77,6.76,4.17-6.15,12.19-3,25.58,7.56,34.25,11.33,8.54,29,11.25,45.38,6.75a336.27,336.27,0,0,1,29.06,31.11l25.52-12.14a362.11,362.11,0,0,0-29.91-31.92c-17.59,4.83-36.58,1.93-48.74-7.26-11.38-9.32-14.73-23.7-8.12-36.79-2.41-1.51-4.82-3-7.29-4.49-15.47,7.61-34.78,8.28-49,1.2-14.42-7-21.72-20.79-19.22-34.52-2.78-1.09-5.56-2.17-8.36-3.23-12.9,9.93-31.62,13.39-48.08,9-16.23-5.34-27.53-17.47-28.19-31.7-2.86-.64-5.76-1.22-8.63-1.82C623.06,94,605.08,100.9,587.72,98.31c-17.78-2.26-31.85-13.51-35.66-27.8-2.83-.2-5.7-.31-8.52-.48-7,13.49-23.42,23.05-41.41,22.46"/></g><path class="cls-11" d="M502.13,92.48c-17.86.62-34.15-8.84-41.28-22.18-2.92.2-5.84.35-8.74.59C448.18,85,434.19,96.1,416.57,98.38c-17.2,2.53-35-4.16-45.21-15.78-3,.62-5.93,1.33-8.88,2-.9,14-12.13,25.93-28.14,31.23-16.26,4.31-34.74,1-47.62-8.58-2.91,1.1-5.86,2.19-8.72,3.34,2.25,13.55-5.06,27.12-19.32,34-13.92,7-32.9,6.49-48.25-.75-2.6,1.56-5.06,3.21-7.6,4.8,6.13,12.9,2.64,26.91-8.48,36.09-12.1,9.13-30.92,12.1-48.43,7.39A337.6,337.6,0,0,0,116,223.68l25.52,12.15v0A312.11,312.11,0,0,1,170.59,205c16.3,4.37,33.81,1.62,45.07-6.88,10.36-8.55,13.6-21.59,7.9-33.59,2.36-1.49,4.66-3,7.07-4.47,14.28,6.74,31.94,7.23,44.91.7,13.27-6.42,20.07-19.05,18-31.66,2.66-1.07,5.4-2.08,8.11-3.11,12,8.95,29.19,12,44.33,8,14.9-4.92,25.35-16,26.19-29.06,2.76-.61,5.49-1.27,8.27-1.85,9.49,10.81,26.07,17,42.08,14.7,16.41-2.13,29.43-12.45,33.09-25.6,2.69-.23,5.42-.36,8.14-.55,6.64,12.42,21.79,21.23,38.42,20.64,16.74.56,32-8.33,38.54-20.9,2.64.17,5.3.26,7.93.46,3.56,13.3,16.65,23.77,33.2,25.88,16.16,2.4,32.9-4,42.31-15,2.67.57,5.36,1.11,8,1.7.61,13.25,11.13,24.55,26.24,29.51,15.33,4.07,32.75.84,44.75-8.4,2.62,1,5.2,2,7.79,3-2.33,12.78,4.47,25.62,17.9,32.13,13.24,6.6,31.21,6,45.63-1.11,2.27,1.36,4.53,2.77,6.76,4.17-6.15,12.19-3,25.58,7.56,34.25,11.33,8.54,29,11.25,45.38,6.75a336.25,336.25,0,0,1,29.06,31.11l25.52-12.14a362.16,362.16,0,0,0-29.91-31.92c-17.59,4.83-36.58,1.93-48.74-7.26-11.38-9.32-14.73-23.7-8.12-36.79-2.41-1.51-4.82-3-7.29-4.49-15.47,7.61-34.78,8.28-49,1.2-14.42-7-21.72-20.79-19.22-34.52-2.78-1.09-5.56-2.17-8.36-3.23-12.9,9.93-31.62,13.39-48.08,9-16.23-5.34-27.53-17.47-28.19-31.7-2.86-.64-5.76-1.22-8.63-1.82C623.06,94,605.08,100.9,587.72,98.31c-17.78-2.26-31.85-13.51-35.66-27.8-2.83-.2-5.7-.31-8.52-.48-7,13.49-23.42,23.05-41.41,22.46"/><path d="M936.31,197.56l-70.15,35.67c-4.44,2.25-4.15,6.11.19,8.48l7.68,4.17a15,15,0,0,0,12.71.07l57.38-29.14c3.62-1.85,5.73-5.75,4.75-8.93l-2.26-7a6.32,6.32,0,0,0-6.26-4.36,9,9,0,0,0-4,1"/><g class="cls-33"><path class="cls-1" d="M936.31,197.56l-70.15,35.67c-4.44,2.25-4.15,6.11.19,8.48l7.68,4.17a15,15,0,0,0,12.71.07l57.38-29.14c3.62-1.85,5.73-5.75,4.75-8.93l-2.26-7a6.32,6.32,0,0,0-6.26-4.36,9,9,0,0,0-4,1"/></g><path class="cls-11" d="M936.31,197.56l-70.15,35.67c-4.44,2.25-4.15,6.11.19,8.48l7.68,4.17a15,15,0,0,0,12.71.07l57.38-29.14c3.62-1.85,5.73-5.75,4.75-8.93l-2.26-7a6.32,6.32,0,0,0-6.26-4.36,9,9,0,0,0-4,1"/><path d="M57.94,200.92l-2.25,7c-1,3.19,1.12,7.09,4.75,8.93L117.82,246a15,15,0,0,0,12.71-.07l7.67-4.17c4.34-2.37,4.63-6.24.19-8.48L68.24,197.56a9,9,0,0,0-4-1,6.33,6.33,0,0,0-6.27,4.36"/><g class="cls-34"><path class="cls-1" d="M57.94,200.92l-2.25,7c-1,3.19,1.12,7.09,4.75,8.93L117.82,246a15,15,0,0,0,12.71-.07l7.67-4.17c4.34-2.37,4.63-6.24.19-8.48L68.24,197.56a9,9,0,0,0-4-1,6.33,6.33,0,0,0-6.27,4.36"/></g><path class="cls-11" d="M57.94,200.92l-2.25,7c-1,3.19,1.12,7.09,4.75,8.93L117.82,246a15,15,0,0,0,12.71-.07l7.67-4.17c4.34-2.37,4.63-6.24.19-8.48L68.24,197.56a9,9,0,0,0-4-1,6.33,6.33,0,0,0-6.27,4.36"/></g></svg>